<svg width="24" height="24" viewBox="0 0 24 24" fill="none" xmlns="http://www.w3.org/2000/svg">
<path d="M18.0752 17.5999C18.0752 17.7641 18.0267 17.8661 17.9463 17.9465C17.866 18.0268 17.7645 18.0754 17.6006 18.0754C17.4364 18.0754 17.3343 18.0269 17.2539 17.9465L12 12.6926L11.6465 13.0461L6.74707 17.9465C6.6667 18.0269 6.56454 18.0754 6.40039 18.0754C6.23612 18.0754 6.13411 18.0269 6.05371 17.9465C5.97331 17.8661 5.9248 17.7641 5.9248 17.5999C5.92484 17.4357 5.97334 17.3335 6.05371 17.2532L10.9541 12.3538L11.3076 12.0002L6.05371 6.74634C5.97337 6.66595 5.9248 6.56386 5.9248 6.39966C5.92488 6.23575 5.97349 6.13426 6.05371 6.05395C6.13411 5.97355 6.23612 5.92505 6.40039 5.92505C6.56455 5.92509 6.6667 5.97358 6.74707 6.05395L12 11.3069L12.3535 10.9534L17.2539 6.05396C17.3343 5.97355 17.4363 5.92505 17.6006 5.92505C17.7646 5.92513 17.866 5.97362 17.9463 6.05396C18.0266 6.13429 18.0751 6.23562 18.0752 6.39966C18.0752 6.56393 18.0267 6.66594 17.9463 6.74634L13.0469 11.6467L12.6934 12.0002L17.9463 17.2532C18.0267 17.3335 18.0752 17.4357 18.0752 17.5999Z" fill="currentColor" stroke="currentColor"/>
</svg>
