<svg width="486" height="90" viewBox="0 0 486 90" fill="none" xmlns="http://www.w3.org/2000/svg">
<path d="M486 59.5405H439.628V51.6056C441.092 50.0674 443.568 48.0227 447.057 45.4715C450.546 42.8828 453.472 40.7256 455.836 38.9998C457.337 37.9118 458.912 36.5987 460.563 35.0604C462.214 33.4847 463.414 32.0778 464.165 30.8397C465.215 29.189 466.003 27.6508 466.528 26.2251C467.054 24.7994 467.316 22.8485 467.316 20.3724C467.316 17.0333 466.472 14.3884 464.784 12.4375C463.133 10.4866 460.882 9.51111 458.031 9.51111C457.168 9.51111 456.324 9.58615 455.498 9.73622C454.673 9.84877 453.848 10.0551 453.022 10.3553C453.397 11.4057 453.791 12.6063 454.204 13.9569C454.654 15.3075 454.879 16.827 454.879 18.5153C454.879 20.4662 454.148 22.0419 452.684 23.2425C451.259 24.4055 449.42 24.987 447.169 24.987C445.068 24.987 443.361 24.2742 442.048 22.8485C440.773 21.3854 440.135 19.622 440.135 17.5586C440.135 14.1445 442.18 11.2182 446.269 8.77953C450.358 6.3409 455.273 5.12158 461.013 5.12158C467.917 5.12158 473.394 6.50972 477.446 9.28601C481.498 12.0248 483.524 15.8328 483.524 20.7101C483.524 23.9365 482.905 26.6753 481.667 28.9264C480.429 31.1774 478.89 33.0533 477.052 34.554C475.214 36.0547 473.15 37.3678 470.862 38.4933C468.611 39.5813 466.603 40.4817 464.84 41.1945C462.289 42.2825 459.888 43.2955 457.637 44.2334C455.386 45.1714 452.891 46.2406 450.152 47.4412V48.1165H486V59.5405Z" fill="white"/>
<path d="M399.897 89.0292C396.258 89.0292 392.694 88.4852 389.205 87.3972C385.753 86.3467 383.071 85.2212 381.158 84.0206L379.469 87.8474H375.08L374.348 66.8564H378.456C379.019 68.5447 379.957 70.4581 381.27 72.5966C382.583 74.6976 384.084 76.5922 385.772 78.2805C387.536 79.9688 389.543 81.3944 391.794 82.5574C394.082 83.7205 396.521 84.302 399.11 84.302C402.524 84.302 405.056 83.6455 406.707 82.3323C408.395 80.9817 409.239 78.9183 409.239 76.142C409.239 74.6413 408.864 73.4032 408.114 72.4278C407.363 71.4523 406.332 70.6082 405.019 69.8953C403.555 69.145 401.942 68.5072 400.179 67.9819C398.453 67.4567 396.315 66.8189 393.763 66.0686C391.212 65.3182 389.017 64.5679 387.179 63.8175C385.378 63.0297 383.502 61.8103 381.551 60.1596C379.863 58.6964 378.513 56.9331 377.5 54.8696C376.487 52.8062 375.98 50.3488 375.98 47.4975C375.98 42.2075 378.194 37.9305 382.621 34.6665C387.085 31.4025 392.919 29.7705 400.123 29.7705C403.537 29.7705 406.669 30.1269 409.521 30.8398C412.41 31.5151 414.829 32.2654 416.78 33.0908L417.962 29.7705H422.239L423.139 48.9606H419.144C417.831 45.0588 415.58 41.701 412.391 38.8872C409.202 36.0359 405.769 34.6102 402.092 34.6102C399.203 34.6102 396.934 35.2105 395.283 36.4111C393.632 37.6116 392.807 39.2812 392.807 41.4197C392.807 44.271 394.007 46.3344 396.408 47.61C398.847 48.8856 402.242 50.0862 406.594 51.2117C413.31 52.9375 418.225 55.3011 421.339 58.3025C424.453 61.2663 426.01 65.0556 426.01 69.6702C426.01 75.8231 423.59 80.5878 418.75 83.9643C413.948 87.3409 407.664 89.0292 399.897 89.0292Z" fill="white"/>
<path d="M340.808 89.0292C337.168 89.0292 333.604 88.4852 330.115 87.3972C326.664 86.3467 323.981 85.2212 322.068 84.0206L320.379 87.8474H315.99L315.258 66.8564H319.366C319.929 68.5447 320.867 70.4581 322.18 72.5966C323.493 74.6976 324.994 76.5922 326.682 78.2805C328.446 79.9688 330.453 81.3944 332.704 82.5574C334.992 83.7205 337.431 84.302 340.02 84.302C343.434 84.302 345.966 83.6455 347.617 82.3323C349.305 80.9817 350.149 78.9183 350.149 76.142C350.149 74.6413 349.774 73.4032 349.024 72.4278C348.274 71.4523 347.242 70.6082 345.929 69.8953C344.466 69.145 342.852 68.5072 341.089 67.9819C339.363 67.4567 337.225 66.8189 334.674 66.0686C332.122 65.3182 329.928 64.5679 328.089 63.8175C326.288 63.0297 324.413 61.8103 322.462 60.1596C320.773 58.6964 319.423 56.9331 318.41 54.8696C317.397 52.8062 316.89 50.3488 316.89 47.4975C316.89 42.2075 319.104 37.9305 323.531 34.6665C327.995 31.4025 333.829 29.7705 341.033 29.7705C344.447 29.7705 347.58 30.1269 350.431 30.8398C353.32 31.5151 355.74 32.2654 357.69 33.0908L358.872 29.7705H363.149L364.05 48.9606H360.054C358.741 45.0588 356.49 41.701 353.301 38.8872C350.112 36.0359 346.679 34.6102 343.002 34.6102C340.114 34.6102 337.844 35.2105 336.193 36.4111C334.542 37.6116 333.717 39.2812 333.717 41.4197C333.717 44.271 334.917 46.3344 337.319 47.61C339.757 48.8856 343.152 50.0862 347.504 51.2117C354.22 52.9375 359.135 55.3011 362.249 58.3025C365.363 61.2663 366.92 65.0556 366.92 69.6702C366.92 75.8231 364.5 80.5878 359.66 83.9643C354.858 87.3409 348.574 89.0292 340.808 89.0292Z" fill="white"/>
<path d="M310.194 85.9341L283.35 87.5661L282.506 86.7783V79.4061H282.168C280.893 80.5691 279.636 81.7134 278.398 82.8389C277.197 83.9269 275.753 84.9211 274.064 85.8216C272.151 86.8345 270.331 87.5849 268.606 88.0726C266.917 88.5603 264.441 88.8042 261.177 88.8042C255.512 88.8042 251.16 87.0971 248.121 83.6831C245.12 80.269 243.619 75.448 243.619 69.2201V43.8959C243.619 42.4327 243.338 41.2509 242.775 40.3505C242.212 39.4126 241.462 38.5872 240.524 37.8744C239.774 37.3116 238.798 36.9177 237.598 36.6926C236.397 36.4299 235.309 36.2611 234.333 36.1861V32.0779L261.627 30.6147L262.246 31.4589V68.8825C262.246 72.7468 262.978 75.5981 264.441 77.4364C265.942 79.2748 267.987 80.194 270.575 80.194C273.239 80.194 275.621 79.4999 277.722 78.1117C279.861 76.7236 281.418 75.2417 282.393 73.6659V43.3331C282.393 42.0575 282.149 40.9133 281.662 39.9003C281.174 38.8873 280.461 38.0619 279.523 37.4241C278.848 36.9739 277.872 36.6738 276.597 36.5237C275.359 36.3737 274.083 36.2611 272.77 36.1861V32.0779L300.064 30.6147L300.908 31.4589V74.904C300.908 76.2171 301.171 77.3426 301.696 78.2806C302.221 79.181 302.99 79.9501 304.003 80.5879C304.716 81.0381 305.635 81.357 306.761 81.5446C307.924 81.6946 309.068 81.7884 310.194 81.826V85.9341Z" fill="white"/>
<path d="M207.659 88.9159C202.444 88.9159 197.829 88.1656 193.815 86.6649C189.838 85.1267 186.555 83.0444 183.967 80.4182C181.378 77.7545 179.446 74.603 178.17 70.9639C176.895 67.3247 176.257 63.3666 176.257 59.0896C176.257 55.1878 177.026 51.4736 178.564 47.9469C180.14 44.4203 182.26 41.3251 184.923 38.6614C187.662 35.9226 191.057 33.7466 195.109 32.1334C199.199 30.4826 203.701 29.6572 208.616 29.6572C215.519 29.6572 220.978 30.9703 224.992 33.5966C229.006 36.1852 231.013 39.6931 231.013 44.1202C231.013 46.8214 230.301 48.9974 228.875 50.6482C227.449 52.299 224.992 53.1243 221.503 53.1243C218.689 53.1243 216.325 52.449 214.412 51.0984C212.536 49.7478 211.598 47.9845 211.598 45.8085C211.598 43.9701 211.898 42.1505 212.499 40.3497C213.099 38.5488 213.455 37.1795 213.568 36.2415C213.155 35.5662 212.63 35.0597 211.992 34.7221C211.354 34.3469 210.36 34.1593 209.01 34.1593C207.321 34.1593 205.783 34.5532 204.395 35.3411C203.007 36.129 201.712 37.5171 200.512 39.5055C199.349 41.3814 198.411 43.8951 197.698 47.0465C197.023 50.198 196.685 53.9872 196.685 58.4143C196.685 65.0924 198.242 70.4761 201.356 74.5655C204.507 78.6549 208.259 80.6996 212.611 80.6996C216.776 80.6996 220.077 79.7804 222.516 77.9421C224.992 76.0662 227.187 73.4212 229.1 70.0072L233.321 72.9335C232.158 75.2221 230.77 77.323 229.156 79.2364C227.543 81.1123 225.611 82.7818 223.36 84.245C220.996 85.7832 218.595 86.9463 216.157 87.7341C213.718 88.522 210.885 88.9159 207.659 88.9159Z" fill="white"/>
<path d="M142.491 89.0292C138.852 89.0292 135.288 88.4852 131.799 87.3972C128.347 86.3467 125.665 85.2212 123.751 84.0206L122.063 87.8474H117.673L116.942 66.8564H121.05C121.613 68.5447 122.551 70.4581 123.864 72.5966C125.177 74.6976 126.678 76.5922 128.366 78.2805C130.129 79.9688 132.136 81.3944 134.387 82.5574C136.676 83.7205 139.115 84.302 141.703 84.302C145.117 84.302 147.65 83.6455 149.301 82.3323C150.989 80.9817 151.833 78.9183 151.833 76.142C151.833 74.6413 151.458 73.4032 150.708 72.4278C149.957 71.4523 148.925 70.6082 147.612 69.8953C146.149 69.145 144.536 68.5072 142.773 67.9819C141.047 67.4567 138.908 66.8189 136.357 66.0686C133.806 65.3182 131.611 64.5679 129.773 63.8175C127.972 63.0297 126.096 61.8103 124.145 60.1596C122.457 58.6964 121.106 56.9331 120.093 54.8696C119.08 52.8062 118.574 50.3488 118.574 47.4975C118.574 42.2075 120.787 37.9305 125.214 34.6665C129.679 31.4025 135.513 29.7705 142.716 29.7705C146.13 29.7705 149.263 30.1269 152.114 30.8398C155.003 31.5151 157.423 32.2654 159.374 33.0908L160.556 29.7705H164.833L165.733 48.9606H161.738C160.425 45.0588 158.173 41.701 154.985 38.8872C151.796 36.0359 148.363 34.6102 144.686 34.6102C141.797 34.6102 139.527 35.2105 137.877 36.4111C136.226 37.6116 135.4 39.2812 135.4 41.4197C135.4 44.271 136.601 46.3344 139.002 47.61C141.441 48.8856 144.836 50.0862 149.188 51.2117C155.904 52.9375 160.818 55.3011 163.932 58.3025C167.046 61.2663 168.603 65.0556 168.603 69.6702C168.603 75.8231 166.183 80.5878 161.344 83.9643C156.541 87.3409 150.257 89.0292 142.491 89.0292Z" fill="white"/>
<path d="M111.258 87.1153H75.6911V83.0072C76.6665 82.9322 77.6232 82.8384 78.5612 82.7258C79.4991 82.6133 80.3057 82.4257 80.981 82.163C82.1816 81.7128 83.0257 81.075 83.5135 80.2497C84.0012 79.3868 84.245 78.2612 84.245 76.8731V44.1204C84.245 42.8073 83.9449 41.663 83.3446 40.6876C82.7443 39.6746 81.994 38.868 81.0936 38.2677C80.4183 37.8175 79.3865 37.3861 77.9984 36.9734C76.6478 36.5607 75.4097 36.2981 74.2842 36.1855V32.0774L101.859 30.6142L102.704 31.4583V76.1415C102.704 77.4546 102.985 78.5801 103.548 79.5181C104.11 80.4185 104.917 81.0938 105.968 81.544C106.718 81.8817 107.543 82.1818 108.444 82.4444C109.344 82.7071 110.282 82.8946 111.258 83.0072V87.1153ZM103.041 10.3548C103.041 13.2061 101.934 15.6447 99.721 17.6707C97.545 19.6591 94.9563 20.6533 91.9549 20.6533C88.916 20.6533 86.2897 19.6591 84.0762 17.6707C81.9002 15.6447 80.8122 13.2061 80.8122 10.3548C80.8122 7.50347 81.9002 5.06485 84.0762 3.03891C86.2897 1.01297 88.916 0 91.9549 0C94.9938 0 97.6012 1.01297 99.7772 3.03891C101.953 5.06485 103.041 7.50347 103.041 10.3548Z" fill="white"/>
<path d="M72.0333 85.9335L44.2893 87.5655L43.4451 86.7777V81.6003L43.0512 81.4877C41.2128 83.4762 38.7179 85.2207 35.5665 86.7214C32.4525 88.1846 29.3011 88.9162 26.1121 88.9162C18.5336 88.9162 12.2869 86.1024 7.37216 80.4748C2.45739 74.8472 0 67.5688 0 58.6396C0 50.7235 2.73877 43.9328 8.2163 38.2677C13.7314 32.6026 20.3907 29.77 28.1943 29.77C31.2707 29.77 34.1596 30.1264 36.8608 30.8393C39.5621 31.5146 41.7193 32.3212 43.3326 33.2591V14.8569C43.3326 13.4687 43.0512 12.1744 42.4884 10.9738C41.9257 9.73576 41.1753 8.77907 40.2374 8.10375C39.0743 7.27837 37.6112 6.69685 35.8478 6.35919C34.122 5.98402 32.3775 5.7214 30.6142 5.57133V1.46318L61.0032 0L61.8474 0.900417V74.6783C61.8474 76.104 62.0725 77.3045 62.5227 78.28C63.0104 79.2554 63.7795 80.0246 64.83 80.5873C65.6179 81 66.7622 81.3001 68.2628 81.4877C69.8011 81.6753 71.0579 81.7879 72.0333 81.8254V85.9335ZM43.3326 75.9164V44.1204C43.0699 43.2575 42.6948 42.3008 42.207 41.2503C41.7568 40.1999 41.119 39.2057 40.2937 38.2677C39.5433 37.4799 38.5303 36.7858 37.2547 36.1855C36.0167 35.5852 34.6098 35.2851 33.034 35.2851C29.2823 35.2851 26.2059 37.4048 23.8048 41.6443C21.4037 45.8837 20.2031 51.8678 20.2031 59.5963C20.2031 62.6353 20.4094 65.374 20.8221 67.8126C21.2723 70.2138 22.0415 72.4085 23.1295 74.3969C24.2175 76.3854 25.6056 77.9423 27.2939 79.0679C29.0197 80.1934 31.0831 80.7561 33.4842 80.7561C35.7728 80.7561 37.6674 80.3247 39.1681 79.4618C40.6688 78.5614 42.057 77.3796 43.3326 75.9164Z" fill="white"/>
</svg>
