<svg width="124" height="124" viewBox="0 0 124 124" fill="none" xmlns="http://www.w3.org/2000/svg">
<g opacity="0.6">
<path d="M82.3334 111.02C93.2124 106.272 102.125 97.9229 107.572 87.3767C113.019 76.8304 114.669 64.7302 112.244 53.1107C109.818 41.4911 103.466 31.061 94.2555 23.574C85.0446 16.0871 73.5367 12 61.6667 12C49.7968 12 38.2889 16.0871 29.078 23.574C19.8671 31.061 13.515 41.4911 11.0899 53.1107C8.66477 64.7302 10.3145 76.8304 15.7616 87.3767C21.2088 97.9229 30.1211 106.272 41.0001 111.02L53.4001 79.5033C49.7924 77.6489 46.9129 74.6355 45.2244 70.9472C43.536 67.2589 43.1366 63.1101 44.0905 59.1675C45.0445 55.2249 47.2963 51.7175 50.484 49.209C53.6718 46.7006 57.6104 45.3368 61.6667 45.3368C65.7231 45.3368 69.6617 46.7006 72.8494 49.209C76.0372 51.7175 78.289 55.2249 79.2429 59.1675C80.1969 63.1101 79.7975 67.2589 78.109 70.9472C76.4206 74.6355 73.5411 77.6489 69.9334 79.5033L82.3334 111.02Z" stroke="white" stroke-width="2" stroke-linecap="round" stroke-linejoin="round"/>
</g>
</svg>
