<svg width="124" height="124" viewBox="0 0 124 124" fill="none" xmlns="http://www.w3.org/2000/svg">
<g opacity="0.6">
<path d="M61.9898 10.3333C46.4485 10.3333 36.3735 20.7648 24.4592 24.5674C19.6128 26.1174 17.1897 26.8873 16.208 27.9774C15.2263 29.0624 14.9422 30.6589 14.3687 33.8416C8.22034 67.9209 21.6537 99.4272 53.687 111.693C57.1228 113.01 58.8433 113.667 62.0053 113.667C65.1673 113.667 66.893 113.005 70.334 111.688C102.362 99.4273 115.78 67.9209 109.632 33.8416C109.058 30.6589 108.769 29.0624 107.787 27.9723C106.806 26.8821 104.388 26.1123 99.5412 24.5674C87.6217 20.7648 77.5312 10.3333 61.9898 10.3333Z" stroke="white" stroke-width="2" stroke-linecap="round" stroke-linejoin="round"/>
<path d="M61.9898 10.3333C46.4485 10.3333 36.3735 20.7648 24.4592 24.5674C19.6128 26.1174 17.1897 26.8873 16.208 27.9774C15.2263 29.0624 14.9422 30.6589 14.3687 33.8416C8.22034 67.9209 21.6537 99.4272 53.687 111.693C57.1228 113.01 58.8433 113.667 62.0053 113.667C65.1673 113.667 66.893 113.005 70.334 111.688C102.362 99.4273 115.78 67.9209 109.632 33.8416C109.058 30.6589 108.769 29.0624 107.787 27.9723C106.806 26.8821 104.388 26.1123 99.5412 24.5674C87.6217 20.7648 77.5312 10.3333 61.9898 10.3333Z" stroke="white" stroke-width="2" stroke-linecap="round" stroke-linejoin="round"/>
<path d="M52.9594 51.4547C52.9594 51.1447 53.0007 49.357 53.011 47.1147C53.011 45.0584 52.8354 43.0847 53.817 41.2764C57.4854 33.9707 68.0254 34.7147 70.6294 42.1547C71.0789 43.3792 71.1099 45.3167 71.0944 47.1147C71.0789 49.4035 71.1254 51.4547 71.1254 51.4547M53.4089 53.6299C47.8289 53.6299 45.0389 57.6599 44.4189 60.1399C43.7989 62.6199 43.7989 71.6099 44.1709 75.3299C45.4109 79.9799 48.5109 81.9019 51.5489 82.5219C54.3389 82.7699 66.1189 82.6769 69.5289 82.6769C74.4889 82.7699 78.2089 80.9099 79.7589 75.3299C80.0689 73.4699 80.3789 63.2399 79.6039 60.1399C77.9609 55.1799 73.8689 53.6299 70.7689 53.6299H53.4089Z" stroke="white" stroke-width="2" stroke-linecap="round" stroke-linejoin="round"/>
</g>
</svg>
